<?xml version="1.0" encoding="utf-8"?>
<!-- Generator: Adobe Illustrator 27.0.1, SVG Export Plug-In . SVG Version: 6.00 Build 0)  -->
<svg version="1.1" xmlns="http://www.w3.org/2000/svg" xmlns:xlink="http://www.w3.org/1999/xlink" x="0px" y="0px"
	 viewBox="0 0 1920 1080" style="enable-background:new 0 0 1920 1080;" xml:space="preserve">
<style type="text/css">
	.st0{fill:#69B578;}
</style>
<g id="Semicircle">
</g>
<g id="Paw_1">
</g>
<g id="Paw_2">
</g>
<g id="Paw_3">
</g>
<g id="Paw_4">
</g>
<g id="Text">
	<g>
		<path class="st0" d="M404.65,559.25c-34.37,0-62.23,27.86-62.23,62.23h124.47C466.89,587.11,439.02,559.25,404.65,559.25z"/>
		<g>
			<path class="st0" d="M346.1,549.52c0,15.13-22.54,46.94-22.54,46.94c-0.61,0.85-1.58,0.85-2.17-0.02c0,0-22.15-32.49-22.15-46.92
				c0-12.94,10.49-23.43,23.43-23.43S346.1,536.58,346.1,549.52z"/>
		</g>
		<g>
			<path class="st0" d="M399.75,492.48c0,18.51-27.58,57.43-27.58,57.43c-0.74,1.05-1.94,1.03-2.66-0.02c0,0-27.1-39.75-27.1-57.41
				c0-15.83,12.83-28.67,28.67-28.67C386.91,463.81,399.75,476.65,399.75,492.48z"/>
		</g>
		<g>
			<path class="st0" d="M465.45,492.48c0,18.51-27.58,57.43-27.58,57.43c-0.74,1.05-1.94,1.03-2.66-0.02c0,0-27.1-39.75-27.1-57.41
				c0-15.83,12.83-28.67,28.67-28.67S465.45,476.65,465.45,492.48z"/>
		</g>
		<g>
			<path class="st0" d="M513.15,549.52c0,15.13-22.54,46.94-22.54,46.94c-0.61,0.85-1.58,0.85-2.17-0.02
				c0,0-22.15-32.49-22.15-46.92c0-12.94,10.49-23.43,23.43-23.43C502.66,526.09,513.15,536.58,513.15,549.52z"/>
		</g>
		<g>
			<path class="st0" d="M693.11,618.35V508.83l-29.85,109.53h-33.22l-29.61-109.04v109.04h-31.05V458.52h49.11l28.89,117.23
				l28.89-117.23h48.14v159.84H693.11z"/>
			<path class="st0" d="M794.21,621.48c-9.63,0-18.22-1.53-25.76-4.57c-7.54-3.05-13.92-7.3-19.14-12.76
				c-5.22-5.45-9.19-12.04-11.92-19.74c-2.73-7.7-4.09-16.13-4.09-25.28c0-9.31,1.4-17.81,4.21-25.52
				c2.81-7.7,6.86-14.28,12.16-19.74c5.3-5.45,11.67-9.67,19.14-12.64c7.46-2.97,15.92-4.45,25.4-4.45c9.31,0,17.65,1.49,25.03,4.45
				c7.38,2.97,13.68,7.14,18.9,12.52c5.21,5.38,9.23,11.92,12.04,19.62c2.81,7.7,4.21,16.29,4.21,25.76
				c0,9.47-1.41,18.02-4.21,25.64c-2.81,7.62-6.82,14.17-12.04,19.62c-5.22,5.46-11.55,9.67-19.02,12.64
				C811.66,620,803.35,621.48,794.21,621.48z M794.21,595.24c19.1,0,28.64-12.04,28.64-36.11c0-23.91-9.55-35.87-28.64-35.87
				c-19.1,0-28.65,11.96-28.65,35.87C765.56,583.21,775.11,595.24,794.21,595.24z"/>
			<path class="st0" d="M868.11,618.35V499.92h29.37v14.2c2.56-4.01,5.25-7.14,8.06-9.39c2.81-2.25,5.69-3.97,8.67-5.18
				c2.97-1.2,5.98-1.96,9.03-2.29c3.05-0.32,6.18-0.48,9.39-0.48h4.09v32.01c-2.89-0.48-5.78-0.72-8.67-0.72
				c-19.1,0-28.65,9.55-28.65,28.64v61.62H868.11z"/>
			<path class="st0" d="M969.2,567.32c0.48,8.99,3.09,16.13,7.82,21.42c4.73,5.3,10.95,7.94,18.66,7.94c5.13,0,9.67-1.16,13.6-3.49
				c3.93-2.32,6.46-5.57,7.58-9.75h32.26c-3.69,12.2-10.11,21.59-19.26,28.16c-9.15,6.58-20.06,9.87-32.74,9.87
				c-39.48,0-59.22-21.5-59.22-64.51c0-9.15,1.28-17.41,3.85-24.79c2.56-7.38,6.3-13.72,11.19-19.02
				c4.89-5.3,10.87-9.35,17.93-12.16c7.06-2.81,15.17-4.21,24.31-4.21c18.3,0,32.14,5.86,41.52,17.57
				c9.39,11.72,14.08,29.37,14.08,52.96H969.2z M1018.55,547.58c-0.16-4.33-0.92-8.14-2.29-11.43c-1.37-3.29-3.17-6.02-5.42-8.18
				c-2.25-2.17-4.81-3.77-7.7-4.81c-2.89-1.04-5.86-1.56-8.91-1.56c-6.26,0-11.67,2.29-16.25,6.86s-7.18,10.95-7.82,19.14H1018.55z"
				/>
			<path class="st0" d="M1068.86,618.35V458.52h70.53c7.86,0,14.93,1.32,21.18,3.97c6.26,2.65,11.63,6.34,16.13,11.07
				c4.49,4.74,7.94,10.23,10.35,16.49c2.41,6.26,3.61,13,3.61,20.22c0,7.22-1.2,13.92-3.61,20.1c-2.41,6.18-5.86,11.47-10.35,15.89
				c-4.49,4.42-9.87,7.86-16.13,10.35c-6.26,2.49-13.32,3.73-21.18,3.73h-37.07v58.01H1068.86z M1134.09,533.14
				c9.63,0,16.57-2.2,20.82-6.62c4.25-4.41,6.38-10.15,6.38-17.21c0-6.74-2.13-12.28-6.38-16.61c-4.25-4.33-11.19-6.5-20.82-6.5
				h-31.78v46.94H1134.09z"/>
			<path class="st0" d="M1266.96,618.35c-0.96-3.05-1.61-6.58-1.93-10.59c-3.69,4.18-8.59,7.5-14.68,9.99
				c-6.1,2.49-13.16,3.73-21.18,3.73c-13.64,0-23.63-3.01-29.97-9.03c-6.34-6.02-9.51-13.84-9.51-23.47c0-8.5,1.36-15.29,4.09-20.34
				c2.73-5.05,6.5-9.03,11.31-11.92c4.81-2.89,10.55-5.01,17.21-6.38c6.66-1.36,13.92-2.61,21.78-3.73
				c7.86-1.12,13.16-2.61,15.89-4.45c2.73-1.84,4.09-4.85,4.09-9.03c0-3.85-1.81-6.86-5.42-9.03c-3.61-2.17-8.47-3.25-14.56-3.25
				c-7.22,0-12.4,1.61-15.53,4.81c-3.13,3.21-5.1,7.46-5.9,12.76h-29.13c0.16-6.1,1.16-11.71,3.01-16.85
				c1.84-5.13,4.81-9.55,8.91-13.24c4.09-3.69,9.43-6.54,16.01-8.55c6.58-2,14.6-3.01,24.07-3.01c9.31,0,17.21,1.05,23.71,3.13
				c6.5,2.09,11.71,5.1,15.65,9.03c3.93,3.93,6.78,8.83,8.55,14.68c1.76,5.86,2.65,12.48,2.65,19.86v74.86H1266.96z M1264.8,560.34
				c-1.61,1.61-3.93,2.89-6.98,3.85c-3.05,0.96-7.46,2.01-13.24,3.13c-8.99,1.77-15.17,4.01-18.54,6.74
				c-3.37,2.73-5.06,6.66-5.06,11.8c0,8.83,5.06,13.24,15.17,13.24c4.01,0,7.74-0.68,11.19-2.05c3.45-1.36,6.42-3.21,8.91-5.54
				c2.49-2.32,4.49-5.06,6.02-8.18c1.52-3.13,2.29-6.46,2.29-9.99L1264.8,560.34z"/>
			<path class="st0" d="M1405.13,618.35l-18.77-68.85l-18.78,68.85h-32.02l-33.7-118.43h32.98l19.26,76.07l16.37-76.07h31.78
				l18.54,76.07l18.05-76.07h32.26l-33.94,118.43H1405.13z"/>
			<path class="st0" d="M1543.3,535.79c-0.8-5.45-2.85-9.43-6.14-11.92c-3.29-2.49-8.3-3.73-15.05-3.73
				c-6.42,0-11.28,0.76-14.56,2.29c-3.29,1.53-4.93,4.13-4.93,7.82c0,3.21,1.64,5.78,4.93,7.7c3.29,1.93,8.06,3.77,14.32,5.54
				c10.27,2.89,18.93,5.34,26,7.34c7.06,2.01,12.72,4.37,16.97,7.1c4.25,2.73,7.3,6.14,9.15,10.23c1.84,4.09,2.77,9.59,2.77,16.49
				c0,10.59-4.42,19.38-13.24,26.36c-8.83,6.98-21.91,10.47-39.24,10.47c-8.51,0-16.21-0.96-23.11-2.89
				c-6.9-1.93-12.8-4.69-17.69-8.31c-4.9-3.61-8.67-7.94-11.31-13c-2.65-5.06-4.05-10.71-4.21-16.97h32.26c0,5.62,2.2,9.95,6.62,13
				c4.41,3.05,10.15,4.57,17.21,4.57c5.94,0,11.03-0.92,15.29-2.77c4.25-1.84,6.38-4.69,6.38-8.55c0-4.33-1.56-7.46-4.69-9.39
				c-3.13-1.93-7.91-3.61-14.32-5.05c-11.55-2.57-20.86-5.25-27.92-8.06c-7.06-2.81-12.56-5.9-16.49-9.27
				c-3.93-3.37-6.58-7.06-7.94-11.07c-1.37-4.01-2.05-8.5-2.05-13.48c0-4.49,0.92-8.74,2.77-12.76c1.84-4.01,4.77-7.54,8.79-10.59
				c4.01-3.05,9.23-5.49,15.65-7.34c6.42-1.84,14.28-2.77,23.59-2.77c17.01,0,29.45,3.45,37.31,10.35c7.86,6.9,12.19,16.45,13,28.64
				H1543.3z"/>
		</g>
	</g>
</g>
</svg>
