<?xml version="1.0" encoding="utf-8"?>
<!-- Generator: Adobe Illustrator 27.0.1, SVG Export Plug-In . SVG Version: 6.00 Build 0)  -->
<svg version="1.1" id="Layer_1" xmlns="http://www.w3.org/2000/svg" xmlns:xlink="http://www.w3.org/1999/xlink" x="0px" y="0px"
	 viewBox="0 0 1080 1080" style="enable-background:new 0 0 1080 1080;" xml:space="preserve">
<style type="text/css">
	.st0{fill:#69B578;}
	.st1{fill:#E8F2EA;}
	.st2{fill:#808081;}
	.st3{fill:#FFFFFF;}
	.st4{fill:#B77355;}
	.st5{fill:#589165;}
</style>
<g>
	<g>
		<path class="st0" d="M512.99,319.79c0,77.55-115.55,240.64-115.55,240.64c-3.1,4.38-8.12,4.34-11.14-0.1
			c0,0-113.53-166.57-113.53-240.54c0-66.34,53.78-120.11,120.11-120.11S512.99,253.45,512.99,319.79z"/>
	</g>
	<g>
		<path class="st0" d="M288.19,558.81c0,63.38-94.44,196.68-94.44,196.68c-2.54,3.58-6.64,3.54-9.11-0.08
			c0,0-92.79-136.14-92.79-196.6c0-54.22,43.95-98.17,98.17-98.17S288.19,504.6,288.19,558.81z"/>
	</g>
	<g>
		<path class="st0" d="M788.3,319.79c0,77.55-115.55,240.64-115.55,240.64c-3.1,4.38-8.12,4.34-11.14-0.1
			c0,0-113.53-166.57-113.53-240.54c0-66.34,53.78-120.11,120.11-120.11S788.3,253.45,788.3,319.79z"/>
	</g>
	<g>
		<path class="st0" d="M988.16,558.81c0,63.38-94.44,196.68-94.44,196.68c-2.54,3.58-6.64,3.54-9.11-0.08
			c0,0-92.79-136.14-92.79-196.6c0-54.22,43.95-98.17,98.17-98.17C944.21,460.64,988.16,504.6,988.16,558.81z"/>
	</g>
	<path class="st0" d="M533.53,599.56c-144.02,0-260.77,116.75-260.77,260.77H794.3C794.3,716.31,677.55,599.56,533.53,599.56z"/>
</g>
</svg>
