<?xml version="1.0" encoding="utf-8"?>
<!-- Generator: Adobe Illustrator 27.0.1, SVG Export Plug-In . SVG Version: 6.00 Build 0)  -->
<svg version="1.1" id="Layer_1" xmlns="http://www.w3.org/2000/svg" xmlns:xlink="http://www.w3.org/1999/xlink" x="0px" y="0px"
	 viewBox="0 0 1080 1080" style="enable-background:new 0 0 1080 1080;" xml:space="preserve">
<style type="text/css">
	.st0{fill:#69B578;}
	.st1{fill:#E8F2EA;}
	.st2{fill:#808081;}
	.st3{fill:#FFFFFF;}
	.st4{fill:#B77355;}
	.st5{fill:#589165;}
</style>
<path class="st0" d="M540,129.69c-175.23,0-317.29,142.05-317.29,317.29c0,195.39,195.65,385.61,279.68,485.78
	c19.63,23.4,55.59,23.4,75.22,0c84.03-100.17,279.68-279.63,279.68-485.78C857.29,271.75,715.23,129.69,540,129.69z M370.23,523.41
	c-29.04,0-52.57-23.54-52.57-52.58c0-29.04,23.54-52.57,52.57-52.57c29.04,0,52.57,23.54,52.57,52.57
	C422.8,499.87,399.26,523.41,370.23,523.41z M545.38,523.41c-29.04,0-52.57-23.54-52.57-52.58c0-29.04,23.54-52.57,52.57-52.57
	s52.57,23.54,52.57,52.57C597.96,499.87,574.42,523.41,545.38,523.41z M720.54,523.41c-29.04,0-52.57-23.54-52.57-52.58
	c0-29.04,23.54-52.57,52.57-52.57c29.04,0,52.57,23.54,52.57,52.57C773.11,499.87,749.57,523.41,720.54,523.41z"/>
</svg>
