<?xml version="1.0" encoding="utf-8"?>
<!-- Generator: Adobe Illustrator 27.1.0, SVG Export Plug-In . SVG Version: 6.00 Build 0)  -->
<svg version="1.1" id="Layer_1" xmlns="http://www.w3.org/2000/svg" xmlns:xlink="http://www.w3.org/1999/xlink" x="0px" y="0px"
	 viewBox="0 0 1080 1080" style="enable-background:new 0 0 1080 1080;" xml:space="preserve">
<style type="text/css">
	.st0{fill:#69B578;}
</style>
<g>
	<path class="st0" d="M363.37,529.56l87.5-245.71c2.27-6.36,8.45-10.54,15.14-10.31c6.75,0.22,12.59,4.78,14.43,11.28l112.58,396.46
		l68.82-180.86c2.29-6.03,8.07-10.01,14.51-10.01h155.8c1.45-12.18,2.24-24.47,2.24-36.88c0-162.81-131.99-294.8-294.8-294.8
		s-294.8,131.99-294.8,294.8c0,25.51,3.69,50.92,10.08,76.03H363.37z"/>
	<path class="st0" d="M687.05,521.47l-81.67,214.64c-2.3,6.04-8.09,10.01-14.51,10.01c-0.22,0-0.45-0.01-0.68-0.02
		c-6.69-0.29-12.44-4.83-14.26-11.28l-112.1-394.79L388.95,550.3c-2.21,6.19-8.06,10.32-14.63,10.32H264.18
		c48.87,141.42,177.91,269.7,240.46,344.27c18.24,21.74,51.65,21.74,69.89,0c68.68-81.88,217.58-220.78,252.41-383.42H687.05z"/>
</g>
</svg>
