<?xml version="1.0" encoding="utf-8"?>
<!-- Generator: Adobe Illustrator 27.0.1, SVG Export Plug-In . SVG Version: 6.00 Build 0)  -->
<svg version="1.1" id="Layer_1" xmlns="http://www.w3.org/2000/svg" xmlns:xlink="http://www.w3.org/1999/xlink" x="0px" y="0px"
	 viewBox="0 0 1080 1080" style="enable-background:new 0 0 1080 1080;" xml:space="preserve">
<style type="text/css">
	.st0{fill:#69B578;}
	.st1{fill:#E8F2EA;}
	.st2{fill:#808081;}
	.st3{fill:#FFFFFF;}
	.st4{fill:#B77355;}
	.st5{fill:#589165;}
</style>
<g>
	<g>
		<path class="st0" d="M491.67,552.09H239.76c-20.15,0-36.48,16.33-36.48,36.48v343.19c0,20.15,16.33,36.48,36.48,36.48h251.91
			V552.09z"/>
		<path class="st0" d="M605.66,552.09v416.15h251.91c20.15,0,36.48-16.33,36.48-36.48V588.57c0-20.15-16.33-36.48-36.48-36.48
			H605.66z"/>
	</g>
	<path class="st0" d="M400.46,277l-7.59,3.04l-70.16,24.84c-13.69-1.6-25.99-8.33-34.7-19.05c-8.86-10.91-12.94-24.61-11.49-38.59
		c1.45-13.98,8.25-26.56,19.16-35.42c9.47-7.68,21.04-11.78,33.07-11.78c1.83,0,3.68,0.09,5.52,0.29h0
		c32.04,3.32,61.19,35.61,80.48,56.99c1.44,1.6,2.84,3.14,4.19,4.63c0,0,57.48-21.76,55.46-21.74c0.15-1.39-0.02-4.6,0.14-6.08
		c3.2-29.77,8.04-74.76,30.92-95.66c9.77-8.93,22.27-13.77,35.42-13.77c0.81,0,1.62,0.02,2.43,0.05
		c14.04,0.64,26.99,6.7,36.47,17.08c9.48,10.38,14.35,23.82,13.71,37.86c-0.6,13.22-6.06,25.44-15.36,34.74l-64.5,22.84l-12.88,4.56
		l47.48,134.1l264.71-93.72c10.37-3.67,15.81-15.06,12.13-25.43l-34.18-96.53c-3.67-10.37-15.06-15.81-25.43-12.13l-117.57,41.63
		l70.5-79.16c6.36-7.15,7.3-17.95,1.56-25.6c-7.9-10.53-22.88-10.76-31.16-1.46l-59.3,66.58c-3.97-12.95-10.7-25-20.11-35.3
		c-16.7-18.28-39.53-28.97-64.27-30.09c-24.72-1.15-48.44,7.47-66.72,24.16c-31.3,28.59-38.75,76.5-42.73,111.85
		c-23.13-25.03-55.54-55.97-97.27-60.29c-33.67-3.52-66.37,11.23-86.9,40.68c-2.34,3.35-4.39,6.92-6.11,10.63
		c-12.81,27.57-11.89,56.73,0.09,81.33l-104.03-5.35c-12.33-0.54-22.74,10.07-20.87,23.08c1.37,9.52,9.74,16.51,19.35,17l103.05,5.3
		l-107.12,37.93c-10.37,3.67-15.81,15.06-12.13,25.43l34.18,96.53c3.67,10.37,15.06,15.81,25.43,12.13l264.71-93.72L400.46,277z"/>
	<g>
		<path class="st0" d="M967.64,406.05c-73.98,0-91.86-69.44-95.89-111.8l-0.9,0c-4.03,42.36-21.91,111.8-95.89,111.8
			c0,0,84.3,9.63,95.71,115.12h1.27C883.34,415.68,967.64,406.05,967.64,406.05z"/>
	</g>
	<g>
		<path class="st0" d="M759.55,453.03c-43.88,0-54.48-41.18-56.87-66.31l-0.53,0c-2.39,25.12-13,66.31-56.87,66.31
			c0,0,50,5.71,56.76,68.28h0.75C709.55,458.74,759.55,453.03,759.55,453.03z"/>
	</g>
</g>
</svg>
