<?xml version="1.0" encoding="utf-8"?>
<!-- Generator: Adobe Illustrator 27.0.1, SVG Export Plug-In . SVG Version: 6.00 Build 0)  -->
<svg version="1.1" id="Layer_1" xmlns="http://www.w3.org/2000/svg" xmlns:xlink="http://www.w3.org/1999/xlink" x="0px" y="0px"
	 viewBox="0 0 1080 1080" style="enable-background:new 0 0 1080 1080;" xml:space="preserve">
<style type="text/css">
	.st0{fill:#69B578;}
	.st1{fill:#E8F2EA;}
	.st2{fill:#808081;}
	.st3{fill:#FFFFFF;}
	.st4{fill:#B77355;}
	.st5{fill:#589165;}
</style>
<path class="st0" d="M540,129.69c-175.23,0-317.29,142.05-317.29,317.29c0,195.39,195.65,385.61,279.68,485.78
	c19.63,23.39,55.59,23.39,75.22,0c84.03-100.17,279.68-279.63,279.68-485.78C857.29,271.75,715.23,129.69,540,129.69z M556.2,683.05
	c-8.45,10.08-23.94,10.08-32.39,0c-36.19-43.14-120.45-125.06-120.45-209.21c0-75.47,61.18-136.65,136.65-136.65
	s136.65,61.18,136.65,136.65C676.65,562.62,592.39,639.91,556.2,683.05z"/>
</svg>
