<?xml version="1.0" encoding="utf-8"?>
<!-- Generator: Adobe Illustrator 27.1.0, SVG Export Plug-In . SVG Version: 6.00 Build 0)  -->
<svg version="1.1" id="Layer_1" xmlns="http://www.w3.org/2000/svg" xmlns:xlink="http://www.w3.org/1999/xlink" x="0px" y="0px"
	 viewBox="0 0 1080 1080" style="enable-background:new 0 0 1080 1080;" xml:space="preserve">
<style type="text/css">
	.st0{fill:#69B578;}
</style>
<path class="st0" d="M860.31,348.87L687.05,334c-25.25-2.17-54.28-22.92-64.5-46.11l-40.86-92.72
	c-10.22-23.19-29.83-24.74-43.57-3.45l-21.27,32.96c-13.74,21.3-36.63,21.56-50.86,0.59l-64.09-94.41
	c-14.23-20.97-32.5-18.48-40.59,5.54l-98.24,291.73c-1.09,3.25-1.78,6.56-2.14,9.88c-4.5,17.15-6.92,35.14-6.92,53.7
	c0,93.25,110.29,295.69,172.47,402.42c18.11,31.08,63.22,30.42,80.43-1.16c41.25-75.66,105.19-197.28,140.88-287.03
	c3.33-0.83,6.49-1.79,9.42-2.91l170.48-64.79c23.69-9,47.33-36.67,52.53-61.47l16.53-78.86
	C901.97,373.11,885.56,351.04,860.31,348.87z"/>
</svg>
