<?xml version="1.0" encoding="utf-8"?>
<!-- Generator: Adobe Illustrator 27.0.1, SVG Export Plug-In . SVG Version: 6.00 Build 0)  -->
<svg version="1.1" id="Layer_1" xmlns="http://www.w3.org/2000/svg" xmlns:xlink="http://www.w3.org/1999/xlink" x="0px" y="0px"
	 viewBox="0 0 1080 1080" style="enable-background:new 0 0 1080 1080;" xml:space="preserve">
<style type="text/css">
	.st0{fill:#69B578;}
	.st1{fill:#E8F2EA;}
	.st2{fill:#808081;}
	.st3{fill:#FFFFFF;}
	.st4{fill:#B77355;}
	.st5{fill:#589165;}
</style>
<g>
	<path class="st0" d="M794.63,164.46c-47.21-44.51-121.95-44.44-169.08,0.16c-36.68,34.71-47.19,86.21-31.56,130.56
		c6.56,18.62,2.19,39.33-11.77,53.29L348.48,582.22c-13.96,13.96-34.67,18.34-53.29,11.77c-44.35-15.63-95.86-5.12-130.57,31.56
		c-44.6,47.13-44.67,121.87-0.16,169.08c22.54,23.91,59.3,29.63,89.49,31.42c1.78,30.19,7.51,66.95,31.42,89.49
		c47.21,44.51,121.95,44.44,169.08-0.16c36.68-34.71,47.19-86.22,31.56-130.57c-6.56-18.62-2.19-39.33,11.77-53.29l233.74-233.74
		c13.96-13.96,34.67-18.34,53.29-11.77c44.35,15.63,95.85,5.12,130.56-31.56c44.6-47.13,44.67-121.87,0.16-169.08
		c-22.54-23.91-59.3-29.63-89.49-31.42C824.26,223.76,818.54,187,794.63,164.46z"/>
	<g>
		<path class="st0" d="M365.71,423.85c-67.09,0-83.31-62.97-86.96-101.38l-0.82,0c-3.65,38.41-19.87,101.38-86.96,101.38
			c0,0,76.45,8.73,86.79,104.4h1.15C289.27,432.59,365.71,423.85,365.71,423.85z"/>
	</g>
</g>
</svg>
